<?xml version="1.0" encoding="UTF-8"?>
<svg xmlns="http://www.w3.org/2000/svg" version="1.1" viewBox="0 0 3600 600">
  <defs>
    <style>
      .cls-1 {
        fill: #f05024;
      }

      .cls-2 {
        fill: #fff;
      }
    </style>
  </defs>
  <!-- Generator: Adobe Illustrator 28.7.10, SVG Export Plug-In . SVG Version: 1.2.0 Build 236)  -->
  <g>
    <g id="LNM">
      <g>
        <path class="cls-2" d="M520.1,71.6h95.3v385.3h100.8v76.5h-196.1V71.6ZM715.7,365.9v-17.2c0-113.5,57.8-174.2,127.4-174.2s118.8,61.4,118.8,177.5v40.9h-154c5.5,55.4,32.8,74.6,63.3,74.6s46.1-9.9,73.5-25.7l7,71.3c-32,17.8-57.1,27.1-92.2,27.1-78.2-.2-143.8-60.2-143.8-174.3ZM875.1,331.5c0-59.4-10.2-87.7-32-87.7s-34.4,25.1-35.9,87.7h67.9ZM980.3,435.1v-11.2c0-79.2,37.5-112.2,93-112.2s37.5,4.6,55.5,13.2v-21.1c0-36.3-20.3-55.4-58.6-55.4s-49.2,7.9-69.6,16.5v-73.9c28.1-10.6,60.2-15.2,83.6-15.2,45.3,0,75.8,9.2,98.5,28.4,25,21.1,37.5,52.8,37.5,94.3v234.9h-92.2v-37.6c-16.4,29-39.1,43.5-68.8,43.5-46.1,0-78.9-39.5-78.9-104.2ZM1128.8,440.4v-60.7c-7-3.3-21.1-7.3-28.9-7.3-18.8,0-31.3,13.2-31.3,46.8v9.2c0,35,12.5,45.5,28.9,45.5,15.6.2,31.3-11.1,31.3-33.5ZM1250,372.5v-31.7c0-126,39.1-167.6,89.1-167.6s59.4,28.4,73.5,49.5V68.3h92.2v465.1h-92.2v-44.2c-13.3,21.1-32.8,50.8-73.5,50.8s-89.1-40.2-89.1-167.5ZM1413.3,368.5v-23.8c0-62.7-13.3-97-36.7-97s-34.4,34.3-34.4,97v23.8c0,63.3,10.9,97,34.4,97s36.7-33.7,36.7-97ZM1538.7,523.5v-76.5c31.3,13.9,57.8,23.1,78.9,23.1s34.4-10.6,34.4-28.4-7-25.7-46.9-58.7c-42.2-35-71.1-66.6-71.1-111.5v-1.3c0-58.7,47.7-95.7,118.8-95.7s45.3,2.6,68.8,9.2v76.5c-19.5-8.6-41.4-15.8-63.3-15.8s-35.2,9.9-35.2,24.4,7,23.1,50,58.7c51.6,42.2,68,70.6,68,110.8v1.3c0,61.4-50.8,100.3-117.2,100.3-27.3,0-58.6-6.5-85.2-16.4ZM1842.5,71.6h88.3l98.5,238.8V71.6h91.4v461.8h-83.6l-103.2-250.1v250.1h-91.4V71.6ZM2147.4,365.9v-17.2c0-113.5,57.8-174.2,127.4-174.2s118.8,61.4,118.8,177.5v40.9h-154c5.5,55.4,32.8,74.6,63.3,74.6s46.1-9.9,73.5-25.7l7,71.3c-32,17.8-57.1,27.1-92.2,27.1-78.2-.2-143.8-60.2-143.8-174.3ZM2306.8,331.5c0-59.4-10.2-87.7-32-87.7s-34.4,25.1-35.9,87.7h67.9ZM2412,435.1v-11.2c0-79.2,37.5-112.2,93-112.2s37.5,4.6,55.5,13.2v-21.1c0-36.3-20.3-55.4-58.6-55.4s-49.2,7.9-69.6,16.5v-73.9c28.1-10.6,60.2-15.2,83.6-15.2,45.3,0,75.8,9.2,98.5,28.4,25,21.1,37.5,52.8,37.5,94.3v234.9h-92.2v-37.6c-16.4,29-39.1,43.5-68.8,43.5-46.1,0-78.9-39.5-78.9-104.2ZM2560.5,440.4v-60.7c-7-3.3-21.1-7.3-28.9-7.3-18.8,0-31.3,13.2-31.3,46.8v9.2c0,35,12.5,45.5,28.9,45.5,15.6.2,31.3-11.1,31.3-33.5ZM2685.8,179.8h92.2v57.7c18.4-39.6,47.7-65.3,100.4-63v99.3h-3.9c-61.3,0-96.5,32.7-96.5,100v159.7h-92.2V179.8ZM2966.2,71.6h96.1l65.6,175.5,65.6-175.5h96.1v461.8h-91.4V253l-69.6,176.2h-1.6l-69.3-176.2v280.4h-91.4V71.6h-.1ZM3316.4,365.9v-17.2c0-113.5,57.8-174.2,127.4-174.2s118.8,61.4,118.8,177.5v40.9h-154c5.5,55.4,32.8,74.6,63.3,74.6s46.1-9.9,73.5-25.7l7,71.3c-32,17.8-57.1,27.1-92.2,27.1-78.1-.2-143.8-60.2-143.8-174.3ZM3475.9,331.5c0-59.4-10.2-87.7-32-87.7s-34.4,25.1-35.9,87.7h67.9Z"/>
        <path class="cls-1" d="M229.2,35c-108.7,0-196.8,88.1-196.8,196.9s14.1,83.8,38.1,116.4l158.7,216.7,91.8-125.3-68.8-93.9c-7.4,1.5-15.1,2.3-23,2.3-64.5,0-116.8-52.3-116.8-116.8s7.3-46.4,19.8-65l67,91.5c3.1,4.3,8.5,6.8,14,6.5h0c23.9-1.1,45-13.9,55.3-33.5h0c2.4-4.5,1.9-10-1.2-14.3l-71.2-97.3c10.5-3.1,21.6-4.8,33.2-4.8,64.5,0,116.8,52.3,116.8,116.8s-5.3,39.7-14.5,56.5l50.4,68.8,6.1-8.4c23.9-32.6,38.1-72.8,38.1-116.4,0-108.6-88.2-196.7-197-196.7Z"/>
      </g>
    </g>
  </g>
</svg>